<svg version="1" xmlns="http://www.w3.org/2000/svg" width="346.667" height="346.667" viewBox="0 0 260.000000 260.000000"><path d="M16.9 1.4c-6.5 2.3-11.6 7.3-14.4 14-1.3 3-1.5 19-1.5 114.8 0 105.6.1 111.5 1.9 115.3 2.1 4.6 6.9 9.8 11.5 12.3 2.9 1.6 11.3 1.7 114.1 2 82.5.2 112.1 0 115.3-.9 2.3-.6 6.2-2.9 8.6-5 8.2-7.3 7.6 3.1 7.6-123.9s.6-116.6-7.6-123.9c-2.3-2-6-4.3-8.2-4.9-6-1.8-222.3-1.6-227.3.2zm175.9 127.8l-.3 88.3h-35.9l-1.4-5.5c-.7-3-1.5-5.7-1.8-5.9-.2-.2-2.1 1.2-4.3 3.2-7.2 6.5-20.1 11.7-29 11.7-2.5 0-7.5-.7-11-1.5-18.3-4.4-30.9-17.7-37.1-39.5-3.1-10.8-3.9-31.7-1.6-43 6-29.4 26.1-49.2 50.1-49.3 10.3-.1 14.9 1.3 23.1 6.9l6.7 4.6-.7-3.4c-.3-1.8-.9-14.9-1.2-29.1l-.7-25.7H193l-.2 88.2z"/><path d="M126.5 124.3c-4 1.8-9 7.6-10.6 12.4-1.9 5.3-1.9 28.2 0 34.7 2 7 7.5 12.2 13.6 13.2 6 .8 12-.9 15.7-4.6l2.8-2.8v-49l-4.2-2.1c-5.8-2.7-13.5-3.5-17.3-1.8z"/></svg>